<?xml version="1.0" standalone="no"?>
<!DOCTYPE svg PUBLIC "-//W3C//DTD SVG 20010904//EN"
 "http://www.w3.org/TR/2001/REC-SVG-20010904/DTD/svg10.dtd">
<svg version="1.0" xmlns="http://www.w3.org/2000/svg"
 width="400.000000pt" height="200.000000pt" viewBox="0 0 400.000000 200.000000"
 preserveAspectRatio="xMidYMid meet">

<g transform="translate(0.000000,200.000000) scale(0.100000,-0.100000)"
fill="#000000" stroke="none">
<path d="M1714 1328 c-12 -6 -27 -21 -33 -34 -29 -65 55 -97 89 -33 23 41 -15
86 -56 67z"/>
<path d="M2886 1308 c-22 -32 -20 -55 8 -73 21 -14 28 -14 46 -3 25 16 37 55
23 77 -16 26 -59 26 -77 -1z"/>
<path d="M775 1296 c-82 -36 -182 -176 -126 -176 5 0 15 14 22 32 19 47 63 92
109 113 22 10 40 24 40 32 0 16 -7 16 -45 -1z"/>
<path d="M740 1200 c-22 -22 -40 -49 -40 -60 0 -30 16 -24 40 15 12 20 35 42
51 50 34 18 38 35 9 35 -11 0 -38 -18 -60 -40z"/>
<path d="M807 1181 c-15 -10 -35 -28 -43 -40 l-15 -21 130 0 131 0 0 40 0 40
-87 0 c-69 0 -94 -4 -116 -19z"/>
<path d="M1705 1190 l-39 -5 -13 -95 c-6 -52 -15 -123 -19 -157 l-7 -63 45 0
46 0 6 68 c4 37 14 107 22 156 8 49 11 92 7 95 -4 4 -26 4 -48 1z"/>
<path d="M1951 1191 c-8 -5 -38 -7 -66 -4 l-52 5 -17 -133 c-10 -74 -20 -146
-23 -161 -5 -27 -4 -28 40 -28 51 0 51 1 64 134 7 77 36 123 71 111 15 -4 21
3 30 32 9 29 9 39 -1 45 -16 10 -29 10 -46 -1z"/>
<path d="M2140 1189 c-90 -20 -152 -192 -100 -277 25 -41 62 -55 125 -47 67 8
83 22 78 62 -5 28 -8 31 -23 23 -48 -26 -120 -2 -106 35 4 11 22 15 76 15 82
0 85 4 84 88 0 42 -5 57 -25 76 -29 28 -62 36 -109 25z m50 -106 c0 -21 -4
-24 -32 -21 -39 4 -44 17 -17 46 16 18 24 21 35 11 8 -6 14 -22 14 -36z"/>
<path d="M2419 1191 c-70 -22 -91 -52 -110 -155 -11 -56 -10 -71 5 -110 23
-61 68 -78 149 -55 33 9 37 13 37 44 l0 33 -47 -1 -48 -2 -3 40 c-8 93 18 138
77 133 32 -3 36 0 45 30 5 18 7 34 5 36 -10 9 -87 14 -110 7z"/>
<path d="M2666 1190 c-90 -27 -145 -180 -100 -276 20 -41 65 -58 128 -49 64
10 80 24 71 63 -6 27 -9 30 -25 22 -30 -16 -87 -12 -94 6 -15 40 -8 44 69 44
l74 0 10 35 c17 64 -11 137 -60 154 -36 12 -34 12 -73 1z m44 -81 c17 -30 5
-49 -30 -49 -34 0 -38 14 -14 48 19 27 30 28 44 1z"/>
<path d="M3386 1190 c-68 -21 -116 -105 -116 -202 0 -105 63 -148 173 -117 42
11 52 27 43 64 -6 22 -9 24 -27 15 -11 -6 -37 -10 -57 -8 -32 3 -37 7 -40 31
l-3 27 75 0 75 0 12 42 c26 98 -45 175 -135 148z m52 -104 c-2 -16 -11 -22
-35 -24 -39 -4 -44 17 -12 49 16 16 23 18 35 8 8 -7 14 -22 12 -33z"/>
<path d="M1410 1177 c-69 -35 -111 -186 -76 -272 18 -43 67 -56 117 -31 22 11
36 13 43 6 5 -5 24 -10 42 -10 31 0 32 1 43 63 28 157 34 239 20 248 -21 13
-161 10 -189 -4z m95 -124 c-10 -97 -42 -138 -75 -98 -17 20 -8 106 14 139 11
17 26 26 42 26 l26 0 -7 -67z"/>
<path d="M2861 1168 c-5 -13 -14 -68 -20 -123 -6 -55 -14 -117 -18 -137 l-6
-38 46 0 46 0 5 43 c18 140 37 261 42 268 3 5 -15 9 -41 9 -38 0 -47 -4 -54
-22z"/>
<path d="M2984 1173 c3 -10 12 -67 20 -128 28 -193 20 -175 75 -175 l47 0 63
148 c35 81 66 153 69 160 3 10 -7 12 -44 10 l-49 -3 -30 -87 c-16 -49 -33 -88
-36 -88 -7 0 -19 87 -19 143 l0 37 -51 0 c-43 0 -50 -2 -45 -17z"/>
<path d="M744 1086 c-3 -8 -4 -27 -2 -43 l3 -28 130 0 130 0 0 40 0 40 -128 3
c-104 2 -128 0 -133 -12z"/>
<path d="M764 969 c26 -37 68 -59 116 -59 34 0 48 -5 58 -20 14 -22 42 -26 60
-8 7 7 12 34 12 60 l0 48 -131 0 -130 0 15 -21z"/>
</g>
</svg>
