<svg width="256" height="256" viewBox="0 0 256 256" xmlns="http://www.w3.org/2000/svg">
  <defs>
    <linearGradient id="bg" x1="0%" y1="0%" x2="100%" y2="100%">
      <stop offset="0%" stop-color="#040915" />
      <stop offset="100%" stop-color="#071d34" />
    </linearGradient>
    <linearGradient id="cloud" x1="0%" y1="0%" x2="100%" y2="100%">
      <stop offset="0%" stop-color="#17c2ff" />
      <stop offset="100%" stop-color="#1effb0" />
    </linearGradient>
    <linearGradient id="link" x1="0%" y1="0%" x2="100%" y2="0%">
      <stop offset="0%" stop-color="#89f7fe" />
      <stop offset="100%" stop-color="#66a6ff" />
    </linearGradient>
  </defs>
  <rect width="256" height="256" rx="48" fill="url(#bg)" />
  <path
    d="M74 168h108c19.3 0 35-15.7 35-35 0-17.2-12.4-31.6-28.7-34.2C179.6 69 157.7 50 129 50c-21.8 0-41 12.4-49.5 31.2C65.1 82.6 52 96.3 52 113c0 24.3 19.7 44 44 44Z"
    fill="url(#cloud)"
    opacity=".85"
  />
  <path
    d="M78 110c-6 0-11 5-11 11s4.1 10 9.8 10l8.2-.2m93 30c6 0 11-5 11-11s-4.1-10-9.8-10l-8.2.2"
    stroke="#dffefc"
    stroke-width="6"
    stroke-linecap="round"
    stroke-linejoin="round"
    opacity=".7"
  />
  <path
    d="M88 90c4-20 22.4-36 45-36s41 16 45 36"
    stroke="#f8ffff"
    stroke-width="5"
    stroke-linecap="round"
    opacity=".6"
  />
  <g fill="#051125">
    <circle cx="84" cy="178" r="10" />
    <circle cx="128" cy="190" r="10" />
    <circle cx="172" cy="178" r="10" />
  </g>
  <path
    d="M84 178l44 12 44-12"
    stroke="url(#link)"
    stroke-width="5"
    stroke-linecap="round"
    stroke-linejoin="round"
  />
  <path
    d="M60 132c12-10 27-16 43-16s31 6 43 16c-12 10-27 16-43 16s-31-6-43-16Zm90 0c12-10 27-16 43-16s31 6 43 16c-12 10-27 16-43 16s-31-6-43-16Z"
    fill="none"
    stroke="url(#link)"
    stroke-width="4"
    stroke-linecap="round"
    opacity=".5"
  />
  <circle cx="190" cy="76" r="10" fill="#ffd65c" opacity=".6" />
  <circle cx="92" cy="66" r="6" fill="#9befff" opacity=".8" />
</svg>
